<svg xmlns="http://www.w3.org/2000/svg" viewBox="0 0 872 872" fill="none"><path d="M436 849C436 848 427 848 416 848C388 847 374 845 354 840C350 839 343 837 338 836C334 835 326 833 321 832C300 825 303 827 284 818C264 809 233 792 227 788C224 785 220 782 217 781C215 779 211 776 208 773C204 771 198 765 193 762C182 753 150 722 144 713C142 710 136 703 132 699C126 692 124 689 121 682C120 681 118 677 116 675C114 673 111 668 110 666C104 653 100 647 98 644C96 642 95 640 95 639C95 639 94 636 93 634C92 631 91 629 91 628C90 627 89 625 88 624C87 622 86 620 86 618C86 617 85 615 85 613C80 603 79 598 77 589C76 584 74 578 73 576C71 571 70 568 68 554C67 547 65 538 65 534C59 505 60 454 68 414C70 404 75 383 76 381C77 380 78 375 79 371C80 363 81 360 86 351C86 349 87 346 88 344C88 341 89 338 91 336C94 333 99 322 99 320C99 319 100 317 102 315C103 314 104 312 104 311C104 310 105 308 107 307C108 306 109 304 109 302C109 299 113 292 117 288C119 287 120 285 120 285C120 284 122 281 124 279C127 277 130 273 131 270C132 268 135 264 136 262C138 260 139 258 139 257C139 257 140 256 141 255C143 255 145 253 145 251C149 244 184 208 191 204C193 203 197 200 200 198C212 188 216 184 220 183C221 182 225 180 227 178C231 175 238 171 239 171C240 171 245 168 250 165C255 161 260 158 260 158C262 158 275 152 292 144C301 139 301 139 301 130C301 126 301 121 302 118C303 113 301 97 299 93C298 89 298 85 300 83C302 81 302 83 301 48C300 28 300 28 318 30C325 31 327 31 328 29C329 28 331 28 335 29C340 30 342 30 344 29C346 28 348 28 349 28C350 29 362 29 377 29C399 29 403 30 404 31C407 33 407 35 407 90L408 113L411 116C413 118 415 119 416 118C419 117 426 116 427 116C427 117 433 117 440 118C446 118 453 118 454 118C455 119 461 119 467 119C477 119 477 119 478 122C479 124 483 125 485 122C486 121 487 121 489 122C494 123 494 122 494 76C494 34 494 33 496 29L498 25L542 25L586 25L588 28C590 31 590 31 589 38C588 42 588 48 588 50C588 53 588 60 588 66C587 72 587 79 587 82C587 95 587 109 587 126L586 144L590 147C591 149 594 151 596 152C618 163 632 170 635 172C637 174 640 176 641 177C643 178 644 179 645 179C645 179 647 180 649 182C651 183 653 185 655 185C656 186 658 188 660 189C662 191 666 194 668 195C673 198 677 202 677 204C677 205 679 207 681 207C687 209 694 216 716 238C722 244 728 252 729 254C731 256 734 261 737 264C739 267 741 270 741 270C741 271 743 273 746 276C749 279 751 283 752 284C752 287 757 295 762 302C766 306 774 322 774 325C774 325 775 328 777 331C783 342 786 347 786 349C786 350 787 353 789 356C791 362 793 368 798 386C802 403 803 406 806 415C807 417 808 423 808 428C808 432 810 445 811 456C813 475 813 495 811 502C811 504 810 510 810 514C810 519 810 526 809 530C808 534 808 541 807 547C806 553 805 559 804 560C803 562 802 566 802 568C801 571 800 575 800 578C799 582 795 595 793 598C791 602 787 615 786 618C786 620 784 625 782 628C781 631 775 641 771 650C766 660 761 668 760 670C759 671 758 672 758 672C758 673 750 685 749 686C748 686 748 687 748 688C748 689 747 691 745 692C743 694 742 696 742 696C742 697 740 699 738 702C736 704 733 708 731 711C729 713 725 718 722 721C720 724 717 727 716 728C714 732 699 748 696 750C694 751 688 755 683 760C671 771 668 773 660 778C657 779 654 782 653 783C652 784 650 785 650 785C649 785 646 787 644 788C641 790 636 793 633 795C630 797 627 799 626 800C625 801 624 802 623 802C622 802 621 803 620 804C619 804 618 805 618 805C617 805 616 806 615 806C614 807 613 808 612 808C611 808 609 809 608 809C607 810 603 812 599 814C593 817 590 818 578 822C575 823 569 826 565 827C561 829 557 830 556 830C555 830 553 830 552 831C543 835 528 839 504 842C499 843 492 845 488 845C484 846 475 847 464 847C454 848 443 848 441 849C438 849 436 849 436 849ZM474 819C481 818 490 817 494 817C498 816 505 814 509 814C517 812 523 810 525 809C525 808 527 808 529 809C532 809 534 809 535 808C536 807 538 806 540 806C541 805 545 805 548 804C551 804 554 803 554 802C555 802 559 800 563 799C571 796 575 795 588 788C592 786 598 784 599 783C600 783 603 781 606 780C608 778 611 776 614 775C619 772 632 764 636 761C638 759 640 758 640 758C641 758 643 756 646 754C648 751 653 748 655 747C660 743 666 738 681 725C687 720 692 715 693 714C695 714 698 709 706 698C708 695 710 693 711 692C711 692 713 690 714 688C717 683 726 670 727 670C728 670 729 668 730 666C731 664 733 660 735 657C737 654 739 651 739 651C739 650 740 648 742 647C743 646 744 644 744 643C744 642 745 640 747 637C750 633 751 630 756 618C757 615 760 609 761 605C763 601 765 597 765 595C766 591 768 585 771 577C772 575 773 570 773 568C774 565 775 562 775 561C776 560 776 555 777 551C778 546 779 538 780 532C781 527 781 519 782 514C782 510 782 503 783 500C784 495 784 491 783 487C782 484 782 479 782 474C782 458 781 447 780 446C780 444 778 437 778 430C777 423 775 414 774 410C773 407 772 403 772 401C772 400 771 398 770 397C770 396 769 395 769 393C769 392 768 389 767 386C767 384 764 378 762 372C760 366 758 361 758 360C757 359 753 351 753 350C753 349 752 347 751 346C750 344 748 340 746 335C744 331 742 326 740 325C739 324 738 322 738 321C738 321 737 319 736 317C734 316 733 313 732 311C730 306 721 293 715 286C712 282 707 276 703 272C700 268 695 262 692 258C688 255 685 251 684 250C683 249 682 248 681 248C681 248 679 247 677 245C676 243 672 239 669 237C666 234 663 231 662 230C661 228 651 220 644 216C642 215 637 212 633 209C630 207 626 205 625 204C624 204 621 202 618 200C614 196 609 193 607 193C606 193 604 192 603 191C601 189 599 188 598 188C597 188 595 187 594 186C592 185 592 185 590 186C589 188 587 199 588 202C589 209 592 212 596 214C604 218 614 225 619 229C623 232 628 236 636 241C647 248 670 271 684 290C688 295 692 301 694 302C695 303 697 306 697 308C698 310 700 313 701 314C702 315 703 318 704 320C706 322 708 326 710 329C715 336 719 344 719 346C719 348 724 357 726 360C727 361 729 364 730 368C731 371 733 377 735 380C737 384 738 388 738 389C738 391 739 394 740 398C744 411 746 420 749 435C749 441 750 447 751 447C752 450 754 503 753 508C752 510 752 515 752 520C752 524 751 530 750 533C749 536 748 541 748 544C747 551 743 566 741 571C741 573 740 576 739 578C735 591 728 608 721 622C720 623 718 628 716 632C712 640 709 645 704 650C703 651 702 653 702 654C701 655 700 658 698 660C697 661 693 666 690 671C681 684 651 713 640 719C632 724 625 727 623 727C621 727 620 727 619 728C616 732 572 736 561 733C559 732 555 732 552 731C550 730 544 728 540 727C536 725 531 724 530 724C528 723 526 722 524 721C523 719 521 718 520 718C519 718 518 717 517 716C516 716 513 713 511 711C500 704 498 703 494 696C491 692 488 687 486 686C485 684 483 681 482 679C477 669 476 666 476 664C476 663 475 661 475 660C474 659 474 655 473 652C473 649 473 644 472 641C471 629 472 619 473 614C474 611 475 606 476 604C477 602 478 598 479 597C479 596 481 593 482 591C490 577 507 567 530 565C536 564 543 562 543 560C543 560 544 558 545 556C547 555 548 551 549 548C549 546 550 542 551 539C552 537 554 530 554 522C555 515 556 509 556 508C557 507 559 474 559 458C560 420 560 329 559 315C559 314 559 311 559 309C559 307 559 304 559 302C559 300 559 297 559 295C559 294 559 280 558 265C558 250 558 236 558 235C558 230 556 227 552 226C550 225 546 223 543 222C540 220 536 219 535 219C534 219 532 219 530 218C525 216 523 218 523 223C523 226 523 229 523 230C523 240 523 323 523 342C523 361 523 381 523 436C523 443 523 457 523 468L524 487L520 492C518 494 516 498 515 501C511 508 494 524 488 525C485 526 483 527 482 527C481 528 478 529 474 530C470 531 466 532 464 532C459 534 444 534 439 532C437 531 432 529 429 528C422 525 412 518 410 515C409 514 408 513 408 513C404 513 395 502 394 496C393 494 392 492 391 490C389 487 387 472 387 454C387 447 386 441 386 439C385 438 385 434 385 430C386 421 386 414 386 396C385 387 385 372 385 362C384 353 384 337 384 328C383 308 382 262 382 244C382 237 382 233 383 231C384 229 384 228 383 227C383 226 382 223 381 219C381 215 380 213 378 211L376 208L370 210C367 211 362 212 359 212C355 212 353 213 351 214C349 216 346 217 344 217C336 219 329 225 331 229C331 230 332 256 331 264C331 265 331 282 331 302C332 321 332 372 332 414C333 457 333 496 333 502C335 524 343 547 352 554C354 556 357 558 358 560C359 562 360 563 361 563C363 563 364 564 365 564C366 565 368 566 369 566C371 566 374 567 376 567C378 568 382 569 385 570C388 571 391 572 392 573C394 574 397 576 400 577C416 584 430 601 433 616C433 618 434 621 435 622C436 625 436 643 434 654C434 660 429 671 426 677C424 680 422 685 420 688C419 691 416 695 414 698C412 700 409 703 408 705C400 716 381 729 366 734C364 735 359 736 357 737C336 745 299 744 278 736C275 735 272 733 271 733C271 732 270 732 268 732C263 732 253 728 244 722C241 720 237 718 237 718C236 718 234 717 234 716C233 715 231 714 231 714C230 714 229 713 228 712C226 711 224 709 222 708C218 706 217 706 204 693C199 688 194 684 193 684C193 684 190 681 188 678C186 675 183 672 182 672C181 671 179 669 178 668C177 666 174 662 171 659C169 656 166 653 166 651C164 647 159 638 157 636C156 635 155 634 155 633C155 633 153 629 152 626C150 622 148 618 147 616C146 613 145 611 144 610C144 608 143 606 143 604C143 603 142 600 141 598C140 596 139 594 139 592C139 591 138 590 138 588C137 587 136 584 135 580C130 562 127 546 126 541C126 538 126 533 125 530C123 517 122 510 123 481C123 465 123 448 123 445C123 441 123 438 124 438C125 437 125 436 125 434C125 433 126 430 126 429C128 425 129 419 129 414C129 412 130 410 130 409C132 407 133 403 136 392C136 388 138 383 139 381C140 380 141 377 141 375C141 373 142 369 144 366C146 363 147 360 147 360C147 359 149 355 151 352C154 348 157 342 158 338C163 328 164 326 168 322C169 320 171 318 171 317C171 317 174 312 177 307C181 302 185 295 186 293C188 291 193 285 197 281C202 277 206 272 207 271C209 268 223 254 227 251C229 249 233 246 237 242C247 235 258 227 259 227C259 227 261 226 262 224C264 223 272 218 279 214C300 204 299 204 302 194C303 187 304 185 302 182C298 173 297 173 292 176C290 177 287 179 284 180C281 180 276 183 273 185C270 187 267 189 266 189C264 189 261 191 258 193C256 195 243 202 241 202C241 202 239 204 236 206C234 208 232 210 231 210C231 210 228 212 226 214C223 216 220 219 218 219C216 220 212 224 208 228C204 232 199 236 196 239C189 245 169 264 169 266C169 267 164 273 157 282C151 288 147 293 147 294C147 295 146 297 145 297C144 298 143 300 143 301C143 302 142 304 140 306C139 307 138 309 138 310C138 310 136 313 134 316C129 322 124 331 124 334C124 335 124 336 123 336C123 337 121 340 120 343C119 346 117 349 116 350C115 351 114 353 114 354C114 354 113 356 112 358C111 359 110 363 110 367C110 371 109 375 108 376C106 378 101 393 100 400C100 402 99 405 98 406C98 408 97 410 97 411C97 414 96 421 93 430C92 434 92 439 92 442C91 446 91 455 90 464C89 483 90 505 91 514C91 517 93 525 94 532C94 539 96 548 98 553C99 558 101 564 101 566C103 578 109 597 112 603C115 607 118 615 118 619C119 620 120 622 120 623C121 624 123 627 124 630C127 637 139 658 144 664C146 666 149 670 150 672C151 674 153 676 154 677C154 678 157 681 160 685C162 689 164 692 165 693C166 693 168 696 171 700C183 716 186 718 193 723C195 724 199 727 201 731C204 734 207 737 208 737C213 740 224 748 226 751C227 752 229 753 229 753C230 753 233 755 236 758C239 761 243 763 243 763C244 763 246 764 248 766C250 767 254 770 257 772C260 773 264 776 266 777C269 779 274 781 278 783C281 785 287 787 289 788C292 790 296 792 299 793C303 794 306 795 307 796C307 797 311 798 316 800C320 801 326 803 330 804C333 805 337 806 340 807C346 808 355 811 360 813C362 813 369 814 374 815C380 816 385 817 386 817C388 818 405 820 408 820C410 819 414 819 418 820C425 821 456 820 474 819ZM338 712C345 711 349 710 357 708C368 705 393 683 397 673C397 671 399 669 400 667C406 659 409 632 405 626C404 625 403 622 403 620C401 612 385 600 372 597C368 596 363 595 362 594C361 594 358 592 355 591C353 591 350 589 349 589C348 588 346 587 345 587C338 584 317 563 317 557C317 557 316 555 315 553C314 551 313 548 312 547C312 545 311 541 310 538C309 532 306 518 304 509C303 506 303 498 304 480C304 467 304 455 304 454C304 398 303 319 302 318C302 317 301 312 302 302C302 295 303 278 302 265C302 235 302 236 290 242C288 242 286 243 286 243C285 243 284 244 283 244C282 245 279 247 276 249C269 253 267 255 258 263C254 267 247 272 244 275C240 278 235 282 232 285C230 287 228 289 227 289C226 289 224 292 219 300C218 302 216 303 215 304C214 304 212 307 210 309C209 312 204 318 199 323C194 330 190 337 188 342C185 346 183 351 181 352C180 353 179 355 179 357C179 360 176 367 172 374C172 376 171 378 171 379C171 380 170 383 168 385C167 387 166 389 166 390C166 390 165 394 164 397C162 401 160 407 160 411C159 415 158 420 157 422C153 440 151 458 151 481C151 502 151 512 152 518C153 522 154 529 155 534C156 538 157 545 157 548C158 550 158 555 159 557C159 560 160 563 161 563C161 564 162 566 162 567C162 570 166 582 168 588C169 589 171 594 172 598C174 606 182 622 188 630C190 632 192 636 193 638C198 647 218 669 227 675C228 676 231 678 234 680C236 682 238 684 239 684C240 684 242 686 244 688C247 690 252 693 256 695C260 697 267 700 272 702C276 704 281 706 282 706C283 706 287 707 290 708C294 710 299 711 302 712C306 713 310 713 312 714C316 715 328 714 338 712ZM600 704C603 704 606 703 607 702C609 702 611 701 612 701C614 701 617 700 620 698C623 697 625 696 626 696C627 696 631 692 636 687C641 682 646 677 647 676C650 674 663 660 665 656C667 654 671 649 674 645C683 635 686 630 694 614C696 610 699 606 699 605C700 605 701 603 701 600C702 597 704 593 705 591C708 586 712 573 712 570C712 569 712 568 713 568C713 567 714 564 715 559C716 555 718 550 718 548C719 545 720 542 720 540C725 520 724 444 719 438C719 437 718 435 718 432C717 427 715 421 714 414C713 408 698 370 692 360C690 356 688 352 687 350C687 349 686 347 685 344C684 342 682 339 680 336C678 334 675 331 674 328C674 326 670 321 666 317C663 313 660 309 660 309C660 305 628 272 624 272C624 272 622 271 622 269C621 268 619 266 618 266C616 265 615 264 614 263C613 261 610 259 607 257C604 255 600 252 597 250C589 243 587 247 587 265C588 281 589 334 589 358C589 374 589 390 589 422C589 453 589 477 587 491C586 500 584 513 584 521C583 528 582 535 581 536C581 537 580 540 580 543C579 546 578 549 578 551C577 552 576 554 576 554C576 557 570 569 568 570C567 571 566 573 566 574C566 577 558 585 552 587C548 590 542 591 531 593C507 597 497 611 501 635C502 640 503 646 503 647C503 660 518 683 533 691C535 692 539 694 542 696C545 698 551 700 555 701C560 702 564 704 565 704C566 706 591 706 600 704ZM470 502C472 501 475 500 476 500C484 500 496 481 495 473C494 471 494 463 494 454C494 445 494 435 494 432C494 428 494 415 494 404C494 393 494 382 494 380C494 362 495 274 495 266C495 265 495 254 494 243C493 227 493 220 494 217C496 211 492 207 486 206C466 203 458 202 456 202C454 202 445 202 435 202C421 202 417 202 414 203L410 205L411 228C411 240 411 265 412 282C412 299 412 319 412 326C413 376 414 399 414 400C415 400 415 411 415 424C416 467 417 477 420 481C421 482 422 484 422 486C424 493 439 503 449 503C450 503 452 504 454 504C456 505 466 504 470 502ZM555 192C558 190 558 189 558 182C558 171 555 166 548 166C546 166 545 166 544 165C544 164 543 164 541 164C539 164 537 163 536 162C534 161 532 161 529 161L525 162L523 170C522 180 527 186 543 191C546 191 549 193 550 193C552 194 552 194 555 192ZM346 186C349 185 354 184 356 184C360 183 361 183 362 182C363 181 365 180 369 180C381 178 383 175 379 157C377 151 378 151 367 152C347 156 337 158 334 160L330 162L330 172C330 189 333 191 346 186ZM491 175C494 173 494 173 494 164C494 152 492 150 481 149C478 149 470 149 464 148C459 148 453 148 450 148C447 149 446 149 444 148C441 145 415 146 411 149L408 151L408 160C409 173 409 173 426 173C450 173 466 174 467 175C470 177 488 177 491 175ZM556 134C557 132 558 99 558 77C558 53 558 54 541 54C522 54 523 51 523 103C523 127 523 128 530 130C551 135 554 136 556 134ZM344 127C348 127 352 125 354 125C355 124 360 124 365 124C371 123 374 123 376 121L378 119L378 98C378 80 378 76 377 73C375 71 375 69 376 67C376 64 376 63 374 60L371 58L358 57C351 57 343 57 340 57C333 56 329 60 329 67C329 70 329 75 329 77C329 92 329 98 330 102C331 105 331 110 330 117C329 130 330 131 344 127Z" fill="#1E2A5E" fill-rule="evenodd"/></svg>