<svg xmlns="http://www.w3.org/2000/svg" viewBox="-10 -10 1100 1202" fill="none"><path d="M532.0 1158.0C529.0 1157.6 520.0 1157.2 512.0 1157.1C487.4 1157.0 458.7 1154.1 439.0 1149.8C419.6 1145.6 389.2 1138.4 385.0 1137.0C383.6 1136.5 379.8 1135.4 376.5 1134.4C352.3 1127.5 339.9 1122.3 297.4 1100.9C258.5 1081.2 246.7 1073.6 206.5 1041.9C185.9 1025.7 141.1 981.3 130.9 967.0C129.1 964.5 124.2 958.5 120.1 953.5C110.3 941.9 108.0 938.8 104.0 931.5C102.2 928.2 98.1 921.9 95.0 917.5C91.8 913.1 86.4 904.1 83.0 897.5C74.9 882.1 75.1 882.4 71.1 876.6C69.2 873.9 66.4 868.4 64.9 864.4C63.3 860.3 60.5 853.9 58.6 850.2C56.7 846.5 54.6 841.2 53.9 838.5C53.2 835.8 51.2 830.1 49.5 826.0C46.7 819.5 44.3 810.9 39.8 792.0C38.6 786.8 36.0 779.0 35.0 777.5C34.0 776.2 31.5 765.2 30.1 756.5C29.4 752.6 28.5 747.0 28.0 744.0C23.2 715.1 22.4 709.5 20.8 693.5C17.9 664.7 20.3 607.0 25.6 577.0C26.4 572.3 27.6 565.8 28.1 562.5C29.4 555.3 31.8 543.9 33.0 539.0C33.5 537.1 34.7 532.4 35.5 528.5C36.4 524.6 38.2 518.4 39.5 514.5C40.8 510.6 42.5 504.1 43.4 500.0C46.4 485.7 46.6 485.2 51.9 473.6C53.7 469.8 55.3 465.3 55.6 463.6C56.5 458.6 58.1 454.8 61.5 450.0C65.0 445.1 68.9 437.0 71.3 429.9C72.8 425.4 76.8 418.3 82.0 410.5C83.5 408.3 85.5 403.9 86.4 400.8C88.0 395.2 92.5 388.8 106.9 371.5C109.7 368.2 114.3 361.7 117.3 357.0C125.1 344.6 127.6 341.2 132.6 335.5C135.1 332.8 140.5 326.3 144.7 321.2C156.8 306.3 188.3 275.2 198.5 268.0C203.4 264.5 212.7 257.5 219.0 252.5C225.3 247.4 234.6 240.6 239.6 237.4C244.6 234.1 250.7 230.2 253.1 228.6C255.5 226.9 260.6 224.1 264.5 222.2C268.3 220.3 275.9 215.9 281.2 212.3C286.6 208.7 295.4 203.9 300.8 201.5C317.6 194.2 345.4 180.3 347.7 178.1C352.8 173.2 354.6 128.8 350.2 116.5C347.4 108.7 347.4 103.1 350.2 98.4L352.4 94.7L351.2 64.6C349.6 23.0 348.4 25.3 371.6 26.4C383.0 27.0 386.5 26.8 389.3 25.6C392.0 24.5 393.8 24.4 397.2 25.2C399.5 25.7 404.0 25.9 407.0 25.5C417.3 24.4 488.0 25.7 491.8 27.1C496.5 28.9 496.7 31.2 497.8 87.3C498.9 146.1 498.5 143.2 506.1 147.0C509.6 148.8 510.6 148.9 513.6 148.0C518.4 146.4 561.6 146.4 566.4 148.0C569.4 148.9 570.4 148.8 573.9 147.0C581.5 143.2 581.1 146.1 582.2 87.3C583.3 31.2 583.5 28.9 588.2 27.1C592.0 25.7 662.7 24.4 673.0 25.5C676.0 25.9 680.5 25.7 682.8 25.2C686.2 24.4 688.0 24.5 690.7 25.6C693.5 26.8 697.0 27.0 708.4 26.4C731.6 25.3 730.4 23.0 728.8 64.6L727.6 94.7L729.8 98.4C732.6 103.1 732.6 108.7 729.8 116.5C725.4 128.8 727.2 173.2 732.3 178.1C734.6 180.3 762.4 194.2 779.2 201.5C784.6 203.9 793.4 208.7 798.8 212.3C804.1 215.9 811.7 220.3 815.5 222.2C819.4 224.1 824.5 226.9 826.9 228.6C829.3 230.2 835.4 234.1 840.4 237.4C845.4 240.6 854.7 247.4 861.0 252.5C867.3 257.5 876.5 264.5 881.5 268.0C891.7 275.2 923.2 306.3 935.3 321.2C939.5 326.3 944.9 332.8 947.4 335.5C952.4 341.2 954.9 344.6 962.7 357.0C965.7 361.7 970.3 368.2 973.1 371.5C987.5 388.8 992.0 395.2 993.6 400.8C994.5 403.9 996.5 408.3 998.0 410.5C1003.2 418.3 1007.2 425.4 1008.7 429.9C1011.1 437.0 1015.0 445.1 1018.5 450.0C1021.9 454.8 1023.5 458.6 1024.4 463.6C1024.7 465.3 1026.3 469.8 1028.1 473.6C1033.4 485.2 1033.6 485.7 1036.6 500.0C1037.5 504.1 1039.2 510.6 1040.5 514.5C1041.8 518.4 1043.6 524.6 1044.5 528.5C1045.3 532.4 1046.5 537.1 1047.0 539.0C1048.2 543.9 1050.6 555.3 1051.9 562.5C1052.4 565.8 1053.6 572.3 1054.4 577.0C1059.7 607.0 1062.1 664.7 1059.2 693.5C1057.6 709.5 1056.8 715.1 1052.0 744.0C1051.5 747.0 1050.6 752.6 1049.9 756.5C1048.5 765.2 1046.0 776.2 1045.0 777.5C1044.0 779.0 1041.4 786.8 1040.2 792.0C1035.7 810.9 1033.3 819.5 1030.5 826.0C1028.8 830.1 1026.8 835.8 1026.1 838.5C1025.4 841.2 1023.3 846.5 1021.4 850.2C1019.5 853.9 1016.7 860.3 1015.1 864.4C1013.6 868.4 1010.8 873.9 1008.9 876.6C1004.9 882.4 1005.1 882.1 997.0 897.5C993.6 904.1 988.2 913.1 985.0 917.5C981.9 921.9 977.8 928.2 976.0 931.5C972.0 938.8 969.7 941.9 959.9 953.5C955.8 958.5 950.9 964.5 949.1 967.0C938.9 981.3 894.1 1025.7 873.5 1041.9C833.3 1073.6 821.5 1081.2 782.6 1100.9C740.1 1122.3 727.7 1127.5 703.5 1134.4C700.2 1135.4 696.4 1136.5 695.0 1137.0C691.3 1138.2 671.0 1143.1 643.0 1149.5C623.9 1153.8 606.7 1155.6 570.5 1157.0C556.8 1157.5 543.7 1158.1 541.5 1158.4C539.3 1158.6 535.0 1158.5 532.0 1158.0ZM598.4 1117.5C603.8 1116.7 609.9 1115.6 611.9 1115.1C613.9 1114.5 619.1 1113.6 623.5 1113.0C636.7 1111.1 647.0 1109.0 656.0 1106.4C660.7 1105.1 666.3 1103.5 668.5 1102.9C688.0 1097.7 718.3 1087.9 723.5 1085.0C725.1 1084.1 728.8 1082.6 731.5 1081.5C745.6 1076.4 781.1 1057.9 797.3 1047.3C800.5 1045.2 805.5 1042.1 808.4 1040.4C811.2 1038.7 818.3 1033.7 824.0 1029.2C829.8 1024.8 839.9 1017.3 846.5 1012.6C853.6 1007.6 862.1 1000.4 867.3 995.1C872.1 990.1 877.3 985.2 878.8 984.3C887.4 978.9 907.8 955.9 923.0 934.5C925.5 931.0 929.2 926.0 931.3 923.3C965.8 879.1 992.6 822.7 1006.3 765.5C1013.2 736.5 1013.9 733.2 1015.9 719.0C1016.5 714.9 1017.6 707.2 1018.4 702.0C1022.7 674.1 1020.7 600.0 1015.0 575.0C1014.4 572.5 1013.1 565.9 1012.0 560.2C1010.9 554.5 1009.4 548.0 1008.6 545.7C1007.9 543.4 1006.7 539.0 1006.0 536.0C1003.2 523.0 1000.5 514.3 997.3 507.3C996.1 504.4 994.5 499.7 993.9 496.8C990.9 481.2 989.1 476.2 984.4 469.2C983.0 467.2 981.2 463.9 980.3 462.0C979.5 460.1 977.7 456.2 976.4 453.4C975.1 450.6 974.0 447.8 974.0 447.1C974.0 444.9 968.9 435.6 961.6 424.5C953.1 411.6 947.0 401.5 947.0 400.4C947.0 400.0 945.9 398.2 944.5 396.4C943.1 394.6 942.0 392.8 942.0 392.5C942.0 391.4 936.0 383.1 931.6 378.0C921.3 366.2 914.8 358.0 911.2 352.5C907.0 346.2 891.8 330.8 876.5 317.5C871.5 313.2 863.2 305.7 858.0 300.9C848.9 292.4 839.7 285.3 828.0 277.3C825.0 275.2 820.7 271.9 818.4 269.9C816.2 267.9 809.2 263.7 803.0 260.6C796.7 257.4 789.5 253.3 786.9 251.4C784.3 249.5 780.0 247.2 777.3 246.3C774.7 245.4 769.4 242.6 765.6 240.2C761.8 237.7 756.4 234.8 753.6 233.8C750.8 232.7 745.9 230.5 742.6 228.9C734.7 224.8 732.9 225.3 728.9 233.5C721.5 248.6 728.7 265.9 746.1 274.8C752.5 278.0 761.9 283.1 771.5 288.4C774.2 290.0 779.5 293.4 783.1 296.1C786.8 298.8 790.0 301.0 790.4 301.0C790.7 301.0 793.0 302.5 795.4 304.3C797.7 306.0 802.3 309.5 805.6 311.9C822.9 325.0 836.6 336.6 845.5 345.9C851.0 351.6 862.3 363.3 870.5 371.9C884.6 386.5 886.4 388.8 898.4 408.0C905.5 419.3 912.8 430.3 914.6 432.5C916.3 434.7 920.8 442.6 924.4 450.0C928.0 457.4 932.8 466.6 935.0 470.5C942.2 483.1 948.8 497.8 949.6 503.2C950.0 505.6 951.3 509.8 952.6 512.6C953.9 515.5 955.9 521.5 957.0 526.1C961.3 543.1 962.3 546.6 963.8 549.5C964.6 551.1 965.9 556.6 966.5 561.6C967.6 570.1 968.9 575.5 972.8 587.5C976.2 598.2 976.1 690.8 972.6 714.0C971.8 719.2 970.6 727.5 970.0 732.5C968.6 743.5 967.9 747.2 961.6 774.5C958.3 788.6 957.2 792.6 954.9 797.6C953.9 799.9 952.8 803.1 952.5 804.6C952.1 806.2 950.7 809.9 949.4 812.8C948.1 815.7 947.0 819.4 947.0 821.1C947.0 822.7 945.9 826.3 944.5 829.0C943.1 831.7 942.0 834.4 942.0 835.0C942.0 835.6 939.5 841.3 936.5 847.6C933.5 853.9 931.0 859.5 931.0 859.9C931.0 860.4 928.9 863.6 926.3 867.1C923.8 870.6 919.3 877.8 916.5 883.0C909.4 896.3 901.7 905.7 880.5 927.2C862.8 945.0 835.8 967.4 826.5 972.0C825.9 972.3 823.8 973.7 821.9 975.2C819.9 976.8 817.9 978.0 817.3 978.0C816.8 978.0 812.1 980.6 806.9 983.7C794.6 991.1 786.4 994.7 777.7 996.7C773.7 997.6 768.5 999.3 766.0 1000.5C763.5 1001.7 759.5 1003.2 757.0 1003.9C754.5 1004.6 751.4 1005.6 750.0 1006.1C735.9 1010.9 682.4 1012.6 666.5 1008.8C618.8 997.2 581.3 970.4 563.0 934.8C561.0 930.8 557.2 923.4 554.7 918.5C543.7 897.0 538.6 858.3 544.8 843.0C546.0 840.0 547.0 836.7 547.0 835.6C547.0 832.9 554.0 818.5 559.2 810.5C566.8 798.8 577.3 790.0 591.8 783.2C594.9 781.7 599.1 779.5 601.0 778.3C606.1 775.2 617.3 771.6 631.9 768.4C635.4 767.7 639.3 766.4 640.6 765.5C641.9 764.7 643.7 764.0 644.6 764.0C646.7 764.0 661.5 748.4 665.8 741.7C674.0 729.0 679.5 712.6 682.6 692.0C685.4 673.2 688.7 301.9 686.1 296.0C684.2 291.9 678.0 287.3 673.0 286.4C671.1 286.0 666.2 284.2 662.1 282.4C658.1 280.5 652.0 278.5 648.6 277.9C645.3 277.3 638.9 276.0 634.5 275.0C623.2 272.3 619.4 275.7 617.0 290.5C616.5 293.5 615.6 296.9 615.0 298.0C614.1 299.7 614.2 301.2 615.4 304.7C617.6 311.2 616.5 387.4 612.9 483.6C612.3 500.1 611.6 531.4 611.4 553.1C610.8 623.6 608.2 654.3 602.1 666.7C600.9 669.0 600.0 671.4 600.0 672.0C600.0 676.4 590.9 687.9 583.5 692.8C581.1 694.4 578.0 697.0 576.6 698.7C571.8 704.4 556.5 713.4 544.7 717.4C536.6 720.1 512.1 709.0 503.4 698.7C502.0 697.0 498.9 694.4 496.5 692.8C489.1 687.9 480.0 676.4 480.0 672.0C480.0 671.4 479.1 669.0 477.9 666.7C471.8 654.3 469.2 623.6 468.6 553.1C468.4 531.4 467.7 500.1 467.1 483.6C463.5 387.4 462.4 311.2 464.6 304.7C465.8 301.2 465.9 299.7 465.0 298.0C464.4 296.9 463.5 293.5 463.0 290.5C460.6 275.7 456.8 272.3 445.5 275.0C441.1 276.0 434.7 277.3 431.4 277.9C428.0 278.5 421.9 280.5 417.9 282.4C413.8 284.2 408.9 286.0 407.0 286.4C402.0 287.3 395.8 291.9 393.9 296.0C391.3 301.9 394.6 673.2 397.4 692.0C400.5 712.6 406.0 729.0 414.2 741.7C418.5 748.4 433.3 764.0 435.4 764.0C436.3 764.0 438.1 764.7 439.4 765.5C440.7 766.4 444.6 767.7 448.1 768.4C462.7 771.6 473.9 775.2 479.0 778.3C480.9 779.5 485.1 781.7 488.2 783.2C502.7 790.0 513.2 798.8 520.8 810.5C526.0 818.5 533.0 832.9 533.0 835.6C533.0 836.7 534.0 840.0 535.2 843.0C541.4 858.3 536.3 897.0 525.3 918.5C522.8 923.4 519.0 930.8 517.0 934.8C498.7 970.4 461.2 997.2 413.5 1008.8C397.6 1012.6 344.1 1010.9 330.0 1006.1C328.6 1005.6 325.5 1004.6 323.0 1003.9C320.5 1003.2 316.5 1001.7 314.0 1000.5C311.5 999.3 306.3 997.6 302.3 996.7C293.6 994.7 285.4 991.1 273.1 983.7C267.9 980.6 263.2 978.0 262.7 978.0C262.1 978.0 260.1 976.8 258.1 975.2C256.2 973.7 254.1 972.3 253.5 972.0C244.2 967.4 217.2 945.0 199.5 927.2C178.3 905.7 170.6 896.3 163.5 883.0C160.7 877.8 156.2 870.6 153.7 867.1C151.1 863.6 149.0 860.4 149.0 859.9C149.0 859.5 146.5 853.9 143.5 847.6C140.5 841.3 138.0 835.6 138.0 835.0C138.0 834.4 136.9 831.7 135.5 829.0C134.1 826.3 133.0 822.7 133.0 821.1C133.0 819.4 131.9 815.7 130.6 812.8C129.3 809.9 127.9 806.2 127.5 804.6C127.2 803.1 126.1 799.9 125.1 797.6C122.8 792.6 121.7 788.6 118.4 774.5C112.1 747.2 111.4 743.5 110.0 732.5C109.4 727.5 108.2 719.2 107.4 714.0C103.9 690.8 103.8 598.2 107.2 587.5C111.1 575.5 112.4 570.1 113.5 561.6C114.1 556.6 115.4 551.1 116.2 549.5C117.7 546.6 118.7 543.1 123.0 526.1C124.1 521.5 126.1 515.5 127.4 512.6C128.7 509.8 130.0 505.6 130.4 503.2C131.2 497.8 137.8 483.1 145.0 470.5C147.2 466.6 152.0 457.4 155.6 450.0C159.2 442.6 163.7 434.7 165.4 432.5C167.2 430.3 174.5 419.3 181.6 408.0C193.6 388.8 195.4 386.5 209.5 371.9C217.7 363.3 229.0 351.6 234.5 345.9C243.2 336.8 258.0 324.2 273.1 312.9C275.6 311.0 280.2 307.6 283.3 305.2C286.4 302.9 289.2 301.0 289.6 301.0C290.0 301.0 293.2 298.8 296.9 296.1C300.5 293.4 305.8 290.0 308.5 288.4C318.1 283.1 327.5 278.0 333.9 274.8C351.3 265.9 358.5 248.6 351.1 233.5C347.1 225.3 345.3 224.8 337.4 228.9C334.1 230.5 329.2 232.7 326.4 233.8C323.6 234.8 318.2 237.7 314.4 240.2C310.6 242.6 305.3 245.4 302.7 246.3C300.0 247.2 295.7 249.5 293.1 251.4C290.5 253.3 283.3 257.4 277.0 260.6C270.8 263.7 263.8 267.9 261.6 269.9C259.3 271.9 255.0 275.2 252.0 277.3C240.3 285.3 231.1 292.4 222.0 300.9C216.8 305.7 208.4 313.2 203.5 317.5C188.2 330.8 173.0 346.2 168.8 352.5C165.2 358.0 158.7 366.2 148.4 378.0C144.0 383.1 138.0 391.4 138.0 392.5C138.0 392.8 136.9 394.6 135.5 396.4C134.1 398.2 133.0 400.0 133.0 400.4C133.0 401.5 126.9 411.6 118.4 424.5C111.1 435.6 106.0 444.9 106.0 447.1C106.0 447.8 104.9 450.6 103.6 453.4C102.3 456.2 100.5 460.1 99.7 462.0C98.8 463.9 97.0 467.2 95.6 469.2C90.9 476.2 89.1 481.2 86.1 496.8C85.5 499.7 83.9 504.4 82.7 507.3C79.5 514.3 76.8 523.0 74.0 536.0C73.3 539.0 72.1 543.4 71.4 545.7C70.6 548.0 69.1 554.5 68.0 560.2C66.9 565.9 65.6 572.5 65.0 575.0C59.3 600.0 57.3 674.1 61.6 702.0C62.4 707.2 63.5 714.9 64.1 719.0C66.1 733.2 66.8 736.5 73.7 765.5C87.4 822.7 114.2 879.1 148.7 923.3C150.8 926.0 154.5 931.0 157.0 934.5C172.2 955.9 192.6 978.9 201.2 984.3C202.7 985.2 207.9 990.1 212.7 995.1C217.9 1000.4 226.4 1007.6 233.5 1012.6C240.1 1017.3 250.2 1024.8 256.0 1029.2C261.7 1033.7 268.8 1038.7 271.6 1040.4C274.5 1042.1 279.5 1045.2 282.7 1047.3C298.9 1057.9 334.4 1076.4 348.5 1081.5C351.2 1082.6 354.9 1084.1 356.5 1085.0C361.7 1087.9 392.0 1097.7 411.5 1102.9C413.7 1103.5 419.3 1105.1 424.0 1106.4C432.9 1109.0 443.2 1111.1 456.5 1113.0C460.9 1113.6 466.4 1114.6 468.7 1115.2C481.3 1118.3 490.4 1118.8 539.0 1118.9C578.1 1119.0 590.6 1118.7 598.4 1117.5ZM390.8 972.0C396.2 971.4 403.8 970.3 407.6 969.5C411.4 968.6 416.5 967.6 419.0 967.0C441.3 962.6 485.0 927.1 485.0 913.6C485.0 913.2 486.1 911.3 487.3 909.2C501.0 887.5 500.1 849.8 485.6 832.4C477.6 822.9 462.9 813.6 451.9 811.0C416.7 802.9 386.2 782.1 375.1 758.5C367.8 743.0 365.2 735.7 363.6 726.5C362.6 721.0 361.4 714.7 361.0 712.5C360.5 710.3 359.3 705.4 358.5 701.5C357.6 697.6 356.6 693.6 356.3 692.5C356.0 691.4 355.6 638.1 355.4 574.0C355.2 500.0 354.7 451.1 354.0 440.0C353.3 430.4 352.9 404.7 353.0 383.0C353.3 322.7 352.5 315.0 346.0 315.0C339.7 315.0 309.8 332.3 297.5 343.1C284.5 354.4 257.5 377.8 251.6 382.6C248.2 385.5 243.6 390.4 241.5 393.6C239.3 396.9 235.4 401.8 232.8 404.5C225.4 412.3 202.2 443.0 197.8 450.9C196.7 452.9 194.2 457.5 192.3 461.3C190.4 465.0 187.7 469.4 186.3 471.0C184.9 472.7 183.0 477.1 182.0 481.0C181.0 484.8 178.2 492.3 175.6 497.8C173.1 503.2 171.0 508.3 171.0 509.1C171.0 509.9 169.5 513.6 167.6 517.5C162.7 527.5 156.7 546.7 153.0 564.5C152.3 567.8 151.4 571.9 151.0 573.5C150.2 576.6 147.8 589.8 146.1 601.0C144.1 614.0 142.7 648.1 143.3 668.8C144.0 691.0 144.5 695.0 149.4 724.5C150.4 730.0 151.5 737.2 152.0 740.5C153.8 753.0 155.0 758.7 156.9 763.5C157.9 766.2 159.6 771.9 160.5 776.0C161.5 780.1 163.1 785.3 164.0 787.5C164.9 789.7 167.4 796.5 169.5 802.5C177.2 825.1 183.6 838.5 195.5 856.5C199.5 862.5 203.3 868.6 204.0 870.0C214.0 889.3 261.7 932.5 286.5 944.8C301.8 952.4 317.6 959.3 323.0 960.9C325.5 961.6 330.2 963.1 333.5 964.2C356.7 972.1 370.8 974.0 390.8 972.0ZM718.1 971.5C727.3 969.9 737.2 967.3 746.5 964.2C749.8 963.1 754.5 961.6 757.0 960.9C762.4 959.3 778.2 952.4 793.5 944.8C818.3 932.5 866.0 889.3 876.0 870.0C876.7 868.6 880.5 862.5 884.5 856.5C896.4 838.5 902.8 825.1 910.5 802.5C912.6 796.5 915.1 789.7 916.0 787.5C916.9 785.3 918.5 780.1 919.5 776.0C920.4 771.9 922.1 766.2 923.1 763.5C925.0 758.7 926.2 753.0 928.0 740.5C928.5 737.2 929.6 730.0 930.6 724.5C935.5 695.0 936.0 691.0 936.7 668.8C937.3 648.1 935.9 614.0 933.9 601.0C932.2 589.8 929.8 576.6 929.0 573.5C928.6 571.9 927.7 567.8 927.0 564.5C923.3 546.7 917.3 527.5 912.4 517.5C910.5 513.6 909.0 509.9 909.0 509.1C909.0 508.3 906.9 503.2 904.4 497.8C901.8 492.3 899.0 484.8 898.0 481.0C897.0 477.1 895.1 472.7 893.7 471.0C892.3 469.4 889.6 465.0 887.7 461.3C885.8 457.5 883.3 452.9 882.2 450.9C877.8 443.0 854.6 412.3 847.2 404.5C844.6 401.8 840.7 396.9 838.5 393.6C836.4 390.4 831.8 385.5 828.4 382.6C822.5 377.8 795.5 354.4 782.5 343.1C773.4 335.1 754.1 323.1 741.7 317.6C727.0 311.1 726.6 312.8 727.0 383.0C727.1 404.7 726.7 430.4 726.0 440.0C725.3 451.1 724.8 500.0 724.6 574.0C724.4 638.1 723.9 691.6 723.6 693.0C721.7 699.7 718.4 715.4 716.4 726.5C714.8 735.7 712.2 743.0 704.9 758.5C693.8 782.1 663.3 802.9 628.1 811.0C617.1 813.6 602.4 822.9 594.4 832.4C579.9 849.8 579.0 887.5 592.7 909.2C593.9 911.3 595.0 913.2 595.0 913.6C595.0 926.9 638.7 962.6 660.5 967.0C662.7 967.4 668.0 968.5 672.3 969.4C688.9 973.0 705.5 973.7 718.1 971.5ZM547.2 671.9C552.8 668.3 558.2 662.3 560.5 657.1C561.4 655.1 562.8 652.2 563.7 650.7C568.8 641.3 571.3 589.5 574.9 420.0C575.5 391.7 576.5 346.6 577.2 319.8C577.8 293.1 578.0 270.5 577.7 269.6C574.8 262.2 505.2 262.2 502.3 269.6C502.0 270.5 502.2 293.1 502.8 319.8C503.5 346.6 504.5 391.7 505.1 420.0C508.7 589.5 511.2 641.3 516.3 650.7C517.2 652.2 518.6 655.1 519.5 657.0C522.9 664.8 534.5 675.0 539.9 675.0C541.2 675.0 544.5 673.6 547.2 671.9ZM409.8 243.6C413.0 242.4 418.8 240.7 422.6 240.1C426.4 239.4 431.8 237.9 434.5 236.8C437.2 235.7 442.3 234.2 445.7 233.4C453.1 231.8 459.1 229.4 460.2 227.7C462.3 224.3 459.7 199.8 456.8 196.3C455.6 194.8 448.2 194.6 441.3 195.9C438.7 196.5 432.2 197.6 427.0 198.5C408.4 201.6 397.7 204.6 394.3 207.7L391.8 210.1L392.2 224.8C392.9 246.4 395.7 249.4 409.8 243.6ZM682.9 244.5C686.9 242.5 687.2 241.3 687.8 224.8L688.2 210.1L685.7 207.7C682.3 204.6 671.6 201.6 653.0 198.5C647.8 197.6 641.3 196.5 638.7 195.9C631.8 194.6 624.4 194.8 623.2 196.3C620.3 199.8 617.7 224.3 619.8 227.7C620.9 229.4 626.9 231.8 634.3 233.4C637.7 234.2 642.8 235.7 645.5 236.8C648.2 237.9 653.6 239.4 657.4 240.1C661.3 240.7 666.9 242.3 669.9 243.6C676.5 246.3 679.1 246.5 682.9 244.5ZM575.7 222.4C578.0 221.0 579.5 215.8 580.6 204.7C581.5 195.5 580.8 193.6 575.2 190.3L570.5 187.5L540.0 187.5C507.2 187.5 506.4 187.6 500.9 193.1C497.8 196.2 499.7 218.1 503.5 221.9C506.5 225.0 570.9 225.4 575.7 222.4ZM417.1 159.9C423.9 158.2 434.0 156.5 439.5 156.1C451.1 155.2 456.2 153.3 458.0 148.9C460.1 143.9 458.4 93.5 455.9 86.1C454.9 83.0 454.0 78.3 454.0 75.7C454.0 71.5 453.5 70.3 450.7 67.5L447.5 64.3L423.5 63.8C388.4 63.0 389.5 61.9 389.9 95.1C390.0 107.8 390.5 121.5 390.9 125.4C391.3 129.3 391.5 138.6 391.2 146.1C390.6 165.2 392.2 166.1 417.1 159.9ZM687.6 161.3C689.0 159.8 689.2 157.9 688.8 146.1C688.5 138.6 688.7 129.3 689.1 125.4C689.5 121.5 690.0 107.8 690.1 95.1C690.5 61.9 691.6 63.0 656.5 63.8L632.5 64.3L629.3 67.5C626.5 70.3 626.0 71.5 626.0 75.7C626.0 78.3 625.1 83.0 624.1 86.1C621.6 93.5 619.9 143.9 622.0 148.9C623.8 153.3 628.8 155.2 641.0 156.2C646.8 156.6 656.5 158.3 662.5 159.9C675.6 163.3 685.0 163.8 687.6 161.3Z" fill="#1E2A5E" fill-rule="evenodd"/></svg>